<svg width="20" height="20" viewBox="0 0 20 20" fill="none" xmlns="http://www.w3.org/2000/svg">
<path d="M9.15354 18.3332C9.46901 18.3259 9.77174 18.2073 10.0082 17.9984C10.2447 17.7894 10.3996 17.5036 10.4456 17.1914H7.8114C7.85871 17.512 8.0209 17.8046 8.26778 18.0146C8.51466 18.2247 8.82943 18.3379 9.15354 18.3332Z" fill="#F9F9F9"/>
<path d="M16.5904 15.2533L16.4201 15.103C15.9371 14.6727 15.5142 14.1791 15.1631 13.6357C14.7796 12.8858 14.5498 12.0668 14.487 11.2269V8.75294C14.485 8.45244 14.4582 8.15261 14.4069 7.85651C13.5586 7.68215 12.7966 7.22001 12.25 6.54832C11.7033 5.87663 11.4056 5.03667 11.4071 4.17065V3.85514C10.8843 3.59783 10.3225 3.42862 9.74448 3.35435V2.72334C9.74448 2.54603 9.67405 2.37598 9.54867 2.2506C9.42329 2.12522 9.25323 2.05478 9.07592 2.05478C8.8986 2.05478 8.72855 2.12522 8.60317 2.2506C8.47779 2.37598 8.40735 2.54603 8.40735 2.72334V3.37939C7.11315 3.56195 5.9287 4.20658 5.07266 5.19424C4.21662 6.18191 3.7468 7.44593 3.74994 8.75294V11.2269C3.68722 12.0668 3.45737 12.8858 3.07387 13.6357C2.72876 14.1777 2.31275 14.6712 1.8369 15.103L1.66663 15.2533V16.6655H16.5904V15.2533Z" fill="#F9F9F9"/>
<path d="M15.163 6.67463C16.546 6.67463 17.667 5.55356 17.667 4.17064C17.667 2.78773 16.546 1.66666 15.163 1.66666C13.7801 1.66666 12.6591 2.78773 12.6591 4.17064C12.6591 5.55356 13.7801 6.67463 15.163 6.67463Z" fill="#FF0000"/>
</svg>
