<svg width="20" height="20" viewBox="0 0 20 20" fill="none" xmlns="http://www.w3.org/2000/svg">
<path d="M18.0596 16.7451L14.9125 13.6073C15.9279 12.3137 16.4788 10.7162 16.4768 9.0717C16.4768 7.60712 16.0425 6.17544 15.2288 4.95769C14.4151 3.73994 13.2586 2.79082 11.9056 2.23035C10.5525 1.66988 9.06356 1.52324 7.62712 1.80896C6.19069 2.09468 4.87124 2.79994 3.83563 3.83556C2.80002 4.87117 2.09476 6.19061 1.80904 7.62705C1.52331 9.06348 1.66996 10.5524 2.23042 11.9055C2.79089 13.2586 3.74001 14.4151 4.95776 15.2287C6.17551 16.0424 7.6072 16.4767 9.07177 16.4767C10.7163 16.4788 12.3137 15.9278 13.6073 14.9124L16.7452 18.0595C16.8313 18.1463 16.9336 18.2152 17.0464 18.2622C17.1592 18.3091 17.2802 18.3333 17.4024 18.3333C17.5246 18.3333 17.6456 18.3091 17.7584 18.2622C17.8712 18.2152 17.9736 18.1463 18.0596 18.0595C18.1464 17.9735 18.2152 17.8711 18.2622 17.7583C18.3092 17.6455 18.3334 17.5245 18.3334 17.4023C18.3334 17.2801 18.3092 17.1592 18.2622 17.0464C18.2152 16.9336 18.1464 16.8312 18.0596 16.7451ZM3.51801 9.0717C3.51801 7.97326 3.84373 6.8995 4.45398 5.98619C5.06424 5.07288 5.93162 4.36104 6.94644 3.94069C7.96126 3.52033 9.07793 3.41035 10.1553 3.62464C11.2326 3.83894 12.2222 4.36788 12.9989 5.14459C13.7756 5.9213 14.3045 6.91088 14.5188 7.98821C14.7331 9.06553 14.6231 10.1822 14.2028 11.197C13.7824 12.2118 13.0706 13.0792 12.1573 13.6895C11.244 14.2997 10.1702 14.6255 9.07177 14.6255C7.59882 14.6255 6.1862 14.0403 5.14467 12.9988C4.10313 11.9573 3.51801 10.5446 3.51801 9.0717Z" fill="#010620" fill-opacity="0.5"/>
</svg>
